<?xml version="1.0" encoding="utf-8"?>
<!-- Generator: Adobe Illustrator 19.0.0, SVG Export Plug-In . SVG Version: 6.00 Build 0)  -->
<svg version="1.1" id="Layer_1" xmlns="http://www.w3.org/2000/svg" xmlns:xlink="http://www.w3.org/1999/xlink" x="0px" y="0px"
	 viewBox="-393 31 500 500" style="enable-background:new -393 31 500 500;" xml:space="preserve">
<style type="text/css">
	.st0{fill:#A6A6A6;}
	.st1{fill:#FFFFFF;}
	.st2{fill:url(#XMLID_2_);}
	.st3{fill:url(#XMLID_3_);}
	.st4{fill:url(#XMLID_4_);}
	.st5{fill:url(#XMLID_5_);}
	.st6{fill:url(#XMLID_6_);}
	.st7{fill:url(#XMLID_7_);}
	.st8{fill:url(#XMLID_8_);}
	.st9{fill:url(#XMLID_9_);}
	.st10{fill:url(#XMLID_10_);}
	.st11{fill:#404040;}
	.st12{fill:url(#XMLID_11_);}
	.st13{fill:url(#XMLID_12_);}
	.st14{fill:url(#XMLID_13_);}
</style>
<g id="XMLID_15_">
	<path id="XMLID_17_" d="M26,335.1h-338c-7.4,0-13.5-6.1-13.5-13.5v-81.1c0-7.4,6.1-13.5,13.5-13.5H26c7.4,0,13.5,6.1,13.5,13.5
		v81.1C39.5,329,33.4,335.1,26,335.1"/>
	<path id="XMLID_23_" class="st0" d="M26,229.1c6.3,0,11.4,5.1,11.4,11.4v81.1c0,6.3-5.1,11.4-11.4,11.4h-338
		c-6.3,0-11.4-5.1-11.4-11.4v-81.1c0-6.3,5.1-11.4,11.4-11.4H26 M26,226.9h-338c-7.4,0-13.5,6.1-13.5,13.5v81.1
		c0,7.4,6.1,13.5,13.5,13.5H26c7.4,0,13.5-6.1,13.5-13.5v-81.1C39.5,233,33.4,226.9,26,226.9z"/>
	<path id="XMLID_24_" class="st1" d="M-197.3,254.6c0,2.3-0.7,4.1-2,5.4c-1.5,1.6-3.5,2.4-6,2.4c-2.3,0-4.3-0.8-6-2.4
		c-1.6-1.6-2.5-3.6-2.5-6s0.8-4.4,2.5-6c1.6-1.6,3.6-2.4,6-2.4c1.2,0,2.3,0.2,3.3,0.7c1.1,0.5,1.9,1.1,2.5,1.8l-1.4,1.4
		c-1.1-1.3-2.6-1.9-4.4-1.9c-1.7,0-3.2,0.6-4.4,1.8s-1.9,2.8-1.9,4.7s0.6,3.5,1.9,4.7c1.2,1.2,2.7,1.8,4.4,1.8
		c1.8,0,3.3-0.6,4.5-1.8c0.8-0.8,1.2-1.9,1.4-3.3h-5.9v-1.9h7.9C-197.3,253.8-197.3,254.2-197.3,254.6z"/>
	<path id="XMLID_25_" class="st1" d="M-197.3,254.6L-197.3,254.6c-0.1,2.2-0.8,4-2.1,5.3l0,0l0,0c-1.5,1.6-3.5,2.4-5.9,2.4
		c-2.3,0-4.3-0.8-5.9-2.4c-1.6-1.6-2.4-3.6-2.4-6c0-2.4,0.8-4.4,2.4-6c1.6-1.6,3.6-2.4,5.9-2.4c1.1,0,2.2,0.2,3.3,0.7
		c1,0.4,1.9,1,2.5,1.8l0.1-0.1l-0.1-0.1l-1.4,1.4l0.1,0.1l0.1-0.1c-1.1-1.3-2.6-2-4.5-2c-1.7,0-3.2,0.6-4.5,1.8s-1.9,2.8-1.9,4.8
		c0,1.9,0.6,3.5,1.9,4.8c1.3,1.2,2.8,1.8,4.5,1.8c1.8,0,3.4-0.6,4.6-1.8c0.8-0.8,1.3-1.9,1.4-3.3v-0.1h-5.9v-1.7h7.8v-0.1h-0.1
		C-197.4,253.8-197.4,254.2-197.3,254.6L-197.3,254.6h0.1c0-0.4,0-0.8-0.1-1.2v-0.1h-8v2.1h6v-0.1h-0.1c-0.1,1.4-0.6,2.5-1.3,3.2
		c-1.2,1.2-2.7,1.8-4.5,1.8c-1.7,0-3.1-0.6-4.4-1.8c-1.2-1.2-1.8-2.7-1.8-4.6c0-1.9,0.6-3.4,1.8-4.6c1.2-1.2,2.7-1.8,4.4-1.8
		c1.9,0,3.3,0.6,4.4,1.9l0.1,0.1l1.6-1.6l-0.1-0.1c-0.6-0.8-1.5-1.4-2.6-1.8c-1.1-0.5-2.2-0.7-3.4-0.7c-2.4,0-4.4,0.8-6,2.5
		c-1.7,1.6-2.5,3.7-2.5,6.1s0.8,4.5,2.5,6.1c1.7,1.6,3.7,2.5,6,2.5c2.5,0,4.5-0.8,6-2.4l-0.1-0.1l0.1,0.1
		C-197.8,258.7-197.2,256.9-197.3,254.6L-197.3,254.6L-197.3,254.6z"/>
	<polygon id="XMLID_26_" class="st1" points="-184.8,247.8 -192.2,247.8 -192.2,253 -185.6,253 -185.6,254.9 -192.2,254.9 
		-192.2,260.1 -184.8,260.1 -184.8,262.1 -194.3,262.1 -194.3,245.9 -184.8,245.9 	"/>
	<polygon id="XMLID_27_" class="st1" points="-184.8,247.8 -184.8,247.7 -192.3,247.7 -192.3,253.1 -185.7,253.1 -185.7,254.8 
		-192.3,254.8 -192.3,260.2 -184.9,260.2 -184.9,262 -194.2,262 -194.2,246 -184.9,246 -184.9,247.8 -184.8,247.8 -184.8,247.7 
		-184.8,247.8 -184.7,247.8 -184.7,245.8 -194.4,245.8 -194.4,262.2 -184.7,262.2 -184.7,260 -192.1,260 -192.1,255 -185.5,255 
		-185.5,252.9 -192.1,252.9 -192.1,247.9 -184.7,247.9 -184.7,247.8 	"/>
	<polygon id="XMLID_28_" class="st1" points="-176,262.1 -178.1,262.1 -178.1,247.8 -182.7,247.8 -182.7,245.9 -171.5,245.9 
		-171.5,247.8 -176,247.8 	"/>
	<polygon id="XMLID_29_" class="st1" points="-176,262.1 -176,262 -178,262 -178,247.7 -182.6,247.7 -182.6,246 -171.6,246 
		-171.6,247.7 -176.1,247.7 -176.1,262.1 -176,262.1 -176,262 -176,262.1 -175.9,262.1 -175.9,247.9 -171.4,247.9 -171.4,245.8 
		-182.8,245.8 -182.8,247.9 -178.2,247.9 -178.2,262.2 -175.9,262.2 -175.9,262.1 	"/>
	<rect id="XMLID_30_" x="-163.4" y="245.9" class="st1" width="2.1" height="16.2"/>
	<polygon id="XMLID_32_" class="st1" points="-163.4,262.1 -163.3,262.1 -163.3,246 -161.5,246 -161.5,262 -163.4,262 -163.4,262.1 
		-163.3,262.1 -163.4,262.1 -163.4,262.2 -161.3,262.2 -161.3,245.8 -163.5,245.8 -163.5,262.2 -163.4,262.2 	"/>
	<polygon id="XMLID_33_" class="st1" points="-152.1,262.1 -154.2,262.1 -154.2,247.8 -158.7,247.8 -158.7,245.9 -147.6,245.9 
		-147.6,247.8 -152.1,247.8 	"/>
	<polygon id="XMLID_34_" class="st1" points="-152.1,262.1 -152.1,262 -154.1,262 -154.1,247.7 -158.6,247.7 -158.6,246 -147.7,246 
		-147.7,247.7 -152.2,247.7 -152.2,262.1 -152.1,262.1 -152.1,262 -152.1,262.1 -152,262.1 -152,247.9 -147.5,247.9 -147.5,245.8 
		-158.8,245.8 -158.8,247.9 -154.3,247.9 -154.3,262.2 -152,262.2 -152,262.1 	"/>
	<path id="XMLID_40_" class="st1" d="M-126.5,260c-1.6,1.6-3.6,2.5-5.9,2.5c-2.4,0-4.4-0.8-5.9-2.5c-1.6-1.6-2.4-3.6-2.4-6
		s0.8-4.4,2.4-6c1.6-1.6,3.6-2.5,5.9-2.5c2.4,0,4.3,0.8,5.9,2.5c1.6,1.6,2.4,3.6,2.4,6C-124.1,256.3-124.9,258.3-126.5,260z
		 M-136.8,258.6c1.2,1.2,2.7,1.8,4.4,1.8s3.2-0.6,4.4-1.8c1.2-1.2,1.8-2.8,1.8-4.7s-0.6-3.4-1.8-4.7c-1.2-1.2-2.7-1.8-4.4-1.8
		s-3.2,0.6-4.4,1.8c-1.2,1.2-1.8,2.8-1.8,4.7S-138,257.4-136.8,258.6z"/>
	<path id="XMLID_47_" class="st1" d="M-126.5,260L-126.5,260c-1.6,1.6-3.6,2.4-5.9,2.4s-4.3-0.8-5.9-2.4c-1.6-1.6-2.4-3.6-2.4-5.9
		c0-2.3,0.8-4.3,2.4-5.9c1.6-1.6,3.5-2.4,5.9-2.4c2.3,0,4.3,0.8,5.9,2.4c1.6,1.6,2.4,3.6,2.4,5.9C-124.2,256.3-125,258.3-126.5,260
		L-126.5,260L-126.5,260c1.7-1.6,2.5-3.6,2.5-6s-0.8-4.4-2.4-6.1c-1.6-1.7-3.6-2.5-6-2.5s-4.4,0.8-6,2.5s-2.4,3.7-2.4,6.1
		c0,2.4,0.8,4.4,2.4,6.1c1.6,1.7,3.6,2.5,6,2.5C-130,262.5-128,261.7-126.5,260L-126.5,260z M-136.8,258.6L-136.8,258.6
		c1.1,1.3,2.6,1.9,4.4,1.9s3.3-0.6,4.5-1.9c1.2-1.2,1.8-2.8,1.8-4.7s-0.6-3.5-1.8-4.7c-1.2-1.2-2.7-1.9-4.5-1.9s-3.3,0.6-4.5,1.9
		c-1.2,1.2-1.8,2.8-1.8,4.7C-138.7,255.9-138.1,257.5-136.8,258.6L-136.8,258.6L-136.8,258.6c-1.1-1.3-1.7-2.8-1.7-4.7
		s0.6-3.4,1.8-4.6c1.2-1.2,2.6-1.8,4.3-1.8c1.7,0,3.2,0.6,4.3,1.8c1.2,1.2,1.8,2.7,1.8,4.6c0,1.9-0.6,3.4-1.8,4.6
		c-1.2,1.2-2.6,1.8-4.3,1.8C-134.1,260.3-135.6,259.7-136.8,258.6L-136.8,258.6z"/>
	<polygon id="XMLID_48_" class="st1" points="-121.2,262.1 -121.2,245.9 -118.6,245.9 -110.7,258.5 -110.7,258.5 -110.7,255.3 
		-110.7,245.9 -108.7,245.9 -108.7,262.1 -110.8,262.1 -119.1,248.8 -119.2,248.8 -119.1,252 -119.1,262.1 	"/>
	<polygon id="XMLID_49_" class="st1" points="-121.2,262.1 -121.1,262.1 -121.1,246 -118.7,246 -110.8,258.6 -110.7,258.6 
		-110.6,258.6 -110.6,255.3 -110.6,246 -108.8,246 -108.8,262 -110.8,262 -119,248.7 -119.2,248.7 -119.3,248.7 -119.2,252 
		-119.2,262 -121.2,262 -121.2,262.1 -121.1,262.1 -121.2,262.1 -121.2,262.2 -119,262.2 -119,252 -119.1,248.8 -119.2,248.8 
		-119.2,248.9 -119.1,248.9 -110.9,262.2 -108.6,262.2 -108.6,245.8 -110.8,245.8 -110.8,255.3 -110.8,258.5 -110.7,258.5 
		-110.7,258.4 -110.7,258.4 -118.6,245.8 -121.3,245.8 -121.3,262.2 -121.2,262.2 	"/>
	<path id="XMLID_131_" class="st1" d="M-141.3,285.7c-6.4,0-11.5,4.8-11.5,11.5c0,6.6,5.2,11.5,11.5,11.5c6.4,0,11.5-4.9,11.5-11.5
		C-129.7,290.6-134.9,285.7-141.3,285.7z M-141.3,304.2c-3.5,0-6.5-2.9-6.5-7s3-7,6.5-7s6.5,2.8,6.5,7
		C-134.8,301.3-137.8,304.2-141.3,304.2z M-166.5,285.7c-6.4,0-11.5,4.8-11.5,11.5c0,6.6,5.2,11.5,11.5,11.5
		c6.4,0,11.5-4.9,11.5-11.5C-154.9,290.6-160.1,285.7-166.5,285.7z M-166.5,304.2c-3.5,0-6.5-2.9-6.5-7s3-7,6.5-7s6.5,2.8,6.5,7
		C-160,301.3-163,304.2-166.5,304.2z M-196.4,289.3v4.9h11.7c-0.3,2.7-1.3,4.7-2.7,6.1c-1.7,1.7-4.4,3.6-9,3.6
		c-7.2,0-12.8-5.8-12.8-13c0-7.2,5.6-13,12.8-13c3.9,0,6.7,1.5,8.8,3.5l3.4-3.4c-2.9-2.8-6.8-4.9-12.2-4.9c-9.8,0-18.1,8-18.1,17.9
		c0,9.8,8.3,17.9,18.1,17.9c5.3,0,9.3-1.7,12.5-5c3.2-3.2,4.2-7.8,4.2-11.4c0-1.1-0.1-2.2-0.3-3h-16.4V289.3z M-73.9,293.1
		c-1-2.6-3.9-7.3-9.8-7.3s-10.8,4.7-10.8,11.5c0,6.4,4.9,11.5,11.4,11.5c5.3,0,8.3-3.2,9.6-5.1l-3.9-2.6c-1.3,1.9-3.1,3.2-5.7,3.2
		s-4.4-1.2-5.6-3.5l15.4-6.4L-73.9,293.1z M-89.6,296.9c-0.1-4.4,3.4-6.7,6-6.7c2,0,3.7,1,4.3,2.4L-89.6,296.9z M-102.1,308h5.1
		v-33.8h-5.1V308z M-110.4,288.3h-0.2c-1.1-1.4-3.3-2.6-6.1-2.6c-5.7,0-11,5.1-11,11.5s5.3,11.5,11,11.5c2.7,0,4.9-1.2,6.1-2.6h0.2
		v1.7c0,4.4-2.4,6.8-6.1,6.8c-3.1,0-5-2.2-5.8-4.1l-4.4,1.8c1.3,3,4.6,6.8,10.2,6.8c5.9,0,10.9-3.5,10.9-12v-20.6h-4.8L-110.4,288.3
		L-110.4,288.3z M-116.2,304.2c-3.5,0-6.4-2.9-6.4-6.9c0-4.1,2.9-7,6.4-7c3.4,0,6.1,3,6.1,7C-110,301.3-112.7,304.2-116.2,304.2z
		 M-50.2,274.2h-12.1V308h5v-12.8h7c5.6,0,11.1-4,11.1-10.5C-39.2,278.3-44.7,274.2-50.2,274.2z M-50.1,290.5h-7.2v-11.6h7.2
		c3.8,0,5.9,3.1,5.9,5.8C-44.2,287.4-46.3,290.5-50.1,290.5z M-18.9,285.7c-3.7,0-7.4,1.6-9,5.2l4.5,1.9c1-1.9,2.7-2.5,4.6-2.5
		c2.6,0,5.3,1.6,5.3,4.3v0.3c-0.9-0.5-2.9-1.3-5.3-1.3c-4.8,0-9.7,2.7-9.7,7.6c0,4.5,4,7.4,8.4,7.4c3.4,0,5.3-1.5,6.4-3.3h0.2v2.6
		h4.9v-13C-8.7,289-13.2,285.7-18.9,285.7z M-19.5,304.2c-1.7,0-4-0.8-4-2.9c0-2.6,2.9-3.6,5.3-3.6c2.2,0,3.3,0.5,4.6,1.1
		C-13.9,302-16.6,304.2-19.5,304.2z M9.1,286.4l-5.8,14.7H3.1l-6-14.7h-5.4l9,20.5l-5.1,11.4h5.3l13.9-31.9L9.1,286.4L9.1,286.4z
		 M-36.4,308h5v-33.8h-5V308z"/>
	
		<linearGradient id="XMLID_2_" gradientUnits="userSpaceOnUse" x1="-790.011" y1="557.3494" x2="-789.011" y2="557.3494" gradientTransform="matrix(-45.3747 45.3747 -45.3747 -45.3747 -10823.4941 61386.5664)">
		<stop  offset="0" style="stop-color:#00A0FF"/>
		<stop  offset="6.574450e-003" style="stop-color:#00A1FF"/>
		<stop  offset="0.2601" style="stop-color:#00BEFF"/>
		<stop  offset="0.5122" style="stop-color:#00D2FF"/>
		<stop  offset="0.7604" style="stop-color:#00DFFF"/>
		<stop  offset="1" style="stop-color:#00E3FF"/>
	</linearGradient>
	<path id="XMLID_135_" class="st2" d="M-298.5,250.6L-298.5,250.6L-298.5,250.6 M-298.5,250.6L-298.5,250.6L-298.5,250.6
		 M-297.1,247.5c-0.9,0.8-1.4,2.2-1.4,4v-0.4c0-0.2,0-0.3,0-0.5c0,0.2,0,0.3,0,0.5v59.8v-0.4c0,1.7,0.5,3,1.3,3.8l0.2,0.2l33.5-33.5
		L-297.1,247.5"/>
	
		<linearGradient id="XMLID_3_" gradientUnits="userSpaceOnUse" x1="-792.0072" y1="561.5575" x2="-791.0072" y2="561.5575" gradientTransform="matrix(-65.4213 0 0 -65.4213 -52048.168 37018.9727)">
		<stop  offset="0" style="stop-color:#FFE000"/>
		<stop  offset="0.4087" style="stop-color:#FFBD00"/>
		<stop  offset="0.7754" style="stop-color:#FFA500"/>
		<stop  offset="1" style="stop-color:#FF9C00"/>
	</linearGradient>
	<path id="XMLID_138_" class="st3" d="M-236.5,282.6c-0.4,0.9-1.3,1.7-2.4,2.3l-13.2,7.5l-0.3,0.1l0,0l0.3-0.1l13.2-7.5
		C-237.8,284.2-236.9,283.4-236.5,282.6 M-252.4,269.8l-11.2,11.2l11.2,11.2l13.5-7.7c1.7-1,2.7-2.2,2.8-3.5l0,0
		c-0.2-1.3-1.1-2.5-2.8-3.5L-252.4,269.8"/>
	
		<linearGradient id="XMLID_4_" gradientUnits="userSpaceOnUse" x1="-788.9578" y1="558.5707" x2="-787.9578" y2="558.5707" gradientTransform="matrix(-61.5316 61.5316 -61.5316 -61.5316 -14434.4541 83202.8047)">
		<stop  offset="0" style="stop-color:#FF3A44"/>
		<stop  offset="1" style="stop-color:#C31162"/>
	</linearGradient>
	<path id="XMLID_142_" class="st4" d="M-297.1,314.9L-297.1,314.9c0.6,0.6,1.5,0.9,2.4,0.9c0.2,0,0.3,0,0.5,0c-0.2,0-0.3,0-0.5,0
		C-295.6,315.8-296.4,315.5-297.1,314.9 M-297.3,314.7l0.2,0.2L-297.3,314.7 M-263.6,281L-263.6,281l-33.5,33.5l0,0l-0.2,0.2
		l0.2-0.2c0.6,0.6,1.5,0.9,2.4,0.9c0.9,0,1.9-0.3,3-0.9l39.2-22.3l0.3,0.3l-0.3-0.3L-263.6,281"/>
	
		<linearGradient id="XMLID_5_" gradientUnits="userSpaceOnUse" x1="-778.3207" y1="555.3757" x2="-777.3207" y2="555.3757" gradientTransform="matrix(27.4765 27.4765 -27.4765 27.4765 36339.5508 6353.1382)">
		<stop  offset="0" style="stop-color:#32A071"/>
		<stop  offset="6.850000e-002" style="stop-color:#2DA771"/>
		<stop  offset="0.4762" style="stop-color:#15CF74"/>
		<stop  offset="0.8009" style="stop-color:#06E775"/>
		<stop  offset="1" style="stop-color:#00F076"/>
	</linearGradient>
	<path id="XMLID_145_" class="st5" d="M-294.7,246.6c-0.9,0-1.8,0.3-2.4,0.9l33.5,33.5l11.2-11.2l-39.2-22.3
		C-292.8,246.9-293.8,246.6-294.7,246.6 M-294.7,246.2L-294.7,246.2L-294.7,246.2c0.9,0,1.9,0.3,3,0.9l39.5,22.4l0,0l-39.5-22.4
		C-292.8,246.5-293.8,246.2-294.7,246.2"/>
	<path id="XMLID_159_" d="M-297.1,314.9L-297.1,314.9L-297.1,314.9L-297.1,314.9 M-291.7,314.9c-0.9,0.5-1.8,0.8-2.6,0.9
		C-293.4,315.7-292.6,315.4-291.7,314.9 M-297.3,314.7L-297.3,314.7L-297.3,314.7L-297.3,314.7"/>
	
		<linearGradient id="XMLID_6_" gradientUnits="userSpaceOnUse" x1="-788.9578" y1="558.5695" x2="-787.9578" y2="558.5695" gradientTransform="matrix(-61.5316 61.5316 -61.5316 -61.5316 -14434.4541 83202.8047)">
		<stop  offset="0" style="stop-color:#CC2E36"/>
		<stop  offset="1" style="stop-color:#9C0E4E"/>
	</linearGradient>
	<path id="XMLID_160_" class="st6" d="M-252.4,292.2l-39.2,22.3c-1.1,0.6-2.1,0.9-3,0.9c-0.9,0-1.8-0.3-2.4-0.9l-0.2,0.2l0,0
		l0.2,0.2l0,0l0,0c0.6,0.6,1.5,0.9,2.4,0.9c0.2,0,0.3,0,0.5,0c0.8-0.1,1.7-0.4,2.6-0.9l39.5-22.4L-252.4,292.2"/>
	<path id="XMLID_161_" d="M-298.5,310.9L-298.5,310.9c0,1.7,0.5,3,1.3,3.8l0,0l0,0l0,0C-298.1,313.9-298.5,312.6-298.5,310.9"/>
	
		<linearGradient id="XMLID_7_" gradientUnits="userSpaceOnUse" x1="-790.011" y1="557.3492" x2="-789.011" y2="557.3492" gradientTransform="matrix(-45.3749 45.3749 -45.3749 -45.3749 -10808.1494 61402.2305)">
		<stop  offset="0" style="stop-color:#008DE0"/>
		<stop  offset="6.574450e-003" style="stop-color:#008DE0"/>
		<stop  offset="0.2601" style="stop-color:#00A7E0"/>
		<stop  offset="0.5122" style="stop-color:#00B8E0"/>
		<stop  offset="0.7604" style="stop-color:#00C4E0"/>
		<stop  offset="1" style="stop-color:#00C7E0"/>
	</linearGradient>
	<path id="XMLID_162_" class="st7" d="M-298.5,310.5v0.4c0,1.7,0.5,3,1.3,3.8l0.2-0.2l-0.2-0.2
		C-298.1,313.5-298.5,312.2-298.5,310.5"/>
	
		<linearGradient id="XMLID_8_" gradientUnits="userSpaceOnUse" x1="-788.9579" y1="558.5709" x2="-787.9579" y2="558.5709" gradientTransform="matrix(-61.5299 61.5299 -61.5299 -61.5299 -14439.7832 83194.8047)">
		<stop  offset="0" style="stop-color:#E0333C"/>
		<stop  offset="1" style="stop-color:#AB0F56"/>
	</linearGradient>
	<polyline id="XMLID_163_" class="st8" points="-297.1,314.5 -297.3,314.7 -297.3,314.7 -297.1,314.5 -297.1,314.5 	"/>
	<path id="XMLID_164_" d="M-236.1,281L-236.1,281c0,0.5-0.1,1.1-0.4,1.6C-236.2,282.1-236.1,281.5-236.1,281"/>
	
		<linearGradient id="XMLID_9_" gradientUnits="userSpaceOnUse" x1="-792.0072" y1="561.5562" x2="-791.0072" y2="561.5562" gradientTransform="matrix(-65.4212 0 0 -65.4212 -52048.0898 37024.4297)">
		<stop  offset="0" style="stop-color:#E0C500"/>
		<stop  offset="0.4087" style="stop-color:#E0A600"/>
		<stop  offset="0.7754" style="stop-color:#E09100"/>
		<stop  offset="1" style="stop-color:#E08900"/>
	</linearGradient>
	<path id="XMLID_165_" class="st9" d="M-236.1,281c-0.2,1.3-1.1,2.5-2.8,3.5l-13.5,7.7l0.3,0.3l13.2-7.5c1.2-0.7,2-1.5,2.4-2.3
		C-236.2,282.1-236.1,281.5-236.1,281"/>
	
		<linearGradient id="XMLID_10_" gradientUnits="userSpaceOnUse" x1="-393" y1="292.3" x2="-392" y2="292.3" gradientTransform="matrix(-9.999997e-005 9.999997e-005 -9.999997e-005 -9.999997e-005 -645.3189 263.4319)">
		<stop  offset="0" style="stop-color:#E0333C"/>
		<stop  offset="1" style="stop-color:#AB0F56"/>
	</linearGradient>
	<polyline id="XMLID_166_" class="st10" points="-252.4,292.2 -252.4,292.2 -252.2,292.4 -252.4,292.2 	"/>
	<path id="XMLID_171_" class="st11" d="M-252.2,269.6L-252.2,269.6L-252.2,269.6l13.2,7.5c1.9,1.1,2.8,2.5,2.8,3.9l0,0
		c0-1.4-0.9-2.8-2.8-3.9L-252.2,269.6 M-298.5,250.6L-298.5,250.6L-298.5,250.6 M-298.5,250.6L-298.5,250.6L-298.5,250.6
		 M-294.7,246.2c-2.1,0-3.6,1.6-3.8,4.4c0.1-1.4,0.5-2.5,1.2-3.3l0.2-0.2l0,0C-296.5,246.5-295.6,246.2-294.7,246.2"/>
	
		<linearGradient id="XMLID_11_" gradientUnits="userSpaceOnUse" x1="-790.011" y1="557.3498" x2="-789.011" y2="557.3498" gradientTransform="matrix(-45.3749 45.3749 -45.3749 -45.3749 -10839.749 61370.6289)">
		<stop  offset="0" style="stop-color:#40B8FF"/>
		<stop  offset="6.574450e-003" style="stop-color:#40B9FF"/>
		<stop  offset="0.2601" style="stop-color:#40CEFF"/>
		<stop  offset="0.5122" style="stop-color:#40DDFF"/>
		<stop  offset="0.7604" style="stop-color:#40E7FF"/>
		<stop  offset="1" style="stop-color:#40EAFF"/>
	</linearGradient>
	<path id="XMLID_174_" class="st12" d="M-297.3,247.3L-297.3,247.3c-0.7,0.7-1.1,1.9-1.2,3.3l0,0l0,0l0,0l0,0c0,0.2,0,0.3,0,0.5v0.4
		c0-1.8,0.5-3.2,1.4-4L-297.3,247.3 M-297.1,247.1L-297.1,247.1L-297.1,247.1L-297.1,247.1"/>
	
		<linearGradient id="XMLID_12_" gradientUnits="userSpaceOnUse" x1="-792.0072" y1="561.5558" x2="-791.0072" y2="561.5558" gradientTransform="matrix(-65.4215 0 0 -65.4215 -52048.3203 37013.1758)">
		<stop  offset="0" style="stop-color:#FFE840"/>
		<stop  offset="0.4087" style="stop-color:#FFCE40"/>
		<stop  offset="0.7754" style="stop-color:#FFBC40"/>
		<stop  offset="1" style="stop-color:#FFB540"/>
	</linearGradient>
	<path id="XMLID_175_" class="st13" d="M-252.2,269.6l-0.3,0.3l13.5,7.7c1.7,1,2.7,2.2,2.8,3.5c0-1.4-0.9-2.8-2.8-3.9L-252.2,269.6
		L-252.2,269.6"/>
	
		<linearGradient id="XMLID_13_" gradientUnits="userSpaceOnUse" x1="-778.3207" y1="555.3757" x2="-777.3207" y2="555.3757" gradientTransform="matrix(27.4765 27.4765 -27.4765 27.4765 36339.5508 6353.1382)">
		<stop  offset="0" style="stop-color:#65B895"/>
		<stop  offset="6.850000e-002" style="stop-color:#62BD95"/>
		<stop  offset="0.4762" style="stop-color:#50DB97"/>
		<stop  offset="0.8009" style="stop-color:#44ED98"/>
		<stop  offset="1" style="stop-color:#40F498"/>
	</linearGradient>
	<path id="XMLID_176_" class="st14" d="M-294.7,246.2L-294.7,246.2c-0.9,0-1.8,0.3-2.4,0.9l0,0l-0.2,0.2l0.2,0.2
		c0.6-0.6,1.5-0.9,2.4-0.9c0.9,0,1.9,0.3,3,0.9l39.2,22.3l0.3-0.3l0,0l-39.5-22.4C-292.8,246.5-293.8,246.2-294.7,246.2"/>
</g>
</svg>
